<?xml version="1.0" encoding="utf-8"?>
<!-- Generator: Adobe Illustrator 19.2.1, SVG Export Plug-In . SVG Version: 6.00 Build 0)  -->
<svg version="1.1" xmlns="http://www.w3.org/2000/svg" xmlns:xlink="http://www.w3.org/1999/xlink" x="0px" y="0px"
	 viewBox="0 0 167 165" style="enable-background:new 0 0 167 165;" xml:space="preserve">
<g>
	<g>
		<path class="st0" d="M162,130H45c-2.4,0-4.4-1.7-4.9-4L20.4,27.5L1.5,8.5c-2-2-2-5.1,0-7.1c2-2,5.1-2,7.1,0l20,20
			c0.7,0.7,1.2,1.6,1.4,2.6l19.2,96H162c2.8,0,5,2.2,5,5S164.8,130,162,130z"/>
	</g>
	<g>
		<circle class="st0" cx="75" cy="152.5" r="12.5"/>
		<circle class="st0" cx="135" cy="152.5" r="12.5"/>
	</g>
	<g>
		<path class="st0" d="M150,110H60c-2.5,0-4.6-1.8-5-4.3l-10-72c-0.2-1.4,0.2-2.9,1.2-4c0.9-1.1,2.3-1.7,3.8-1.7h110
			c1.4,0,2.8,0.6,3.8,1.7c1,1.1,1.4,2.5,1.2,4l-10,72C154.6,108.2,152.5,110,150,110z M64.4,100h81.3l8.6-62H55.7L64.4,100z"/>
	</g>
</g>
</svg>
